# Blender 3.1.0
# www.blender.org
mtllib test object.mtl
o Cube
v 1.000000 1.000000 -1.000000
v 0.160956 -0.086090 -1.852374
v 1.542230 1.851723 0.848869
v 1.000000 -1.000000 1.000000
v -1.000000 1.000000 -1.000000
v -1.000000 -1.000000 -1.000000
v -1.000000 1.000000 1.000000
v -1.000000 -1.000000 1.000000
vn -0.1871 0.9644 -0.1871
vn 0.0280 0.0280 0.9992
vn -1.0000 -0.0000 -0.0000
vn 0.2168 -0.9519 -0.2168
vn 0.9216 -0.2744 -0.2744
vn -0.3343 0.3343 -0.8812
vt 0.863593 0.806608
vt 0.806608 0.773210
vt 0.863593 0.773210
vt 0.569436 1.105438
vt 1.105438 0.392443
vt 0.569436 0.392443
vt 1.053690 0.158422
vt 1.053690 1.071811
vt 0.158422 1.071811
vt 0.863593 0.072039
vt 0.863593 0.105438
vt 0.105438 0.072039
vt 0.162422 0.806608
vt 0.806608 0.773210
vt 0.162422 0.773210
vt 0.806608 0.072039
vt 0.162422 0.806608
vt 0.162422 0.072039
vt 0.162422 0.105438
vt 0.162422 0.773210
vt 0.105438 0.773210
vt 0.162422 0.072039
vt 0.105438 0.072039
vt 0.162422 0.105438
s 0
usemtl Material
f 1/1/1 5/13/1 7/19/1 3/7/1
f 4/10/2 3/8/2 7/20/2 8/22/2
f 8/23/3 7/21/3 5/14/3 6/16/3
f 6/17/4 2/4/4 4/11/4 8/24/4
f 2/5/5 1/2/5 3/9/5 4/12/5
f 6/18/6 5/15/6 1/3/6 2/6/6
